<svg width="428" height="925" viewBox="0 0 428 925" fill="none" xmlns="http://www.w3.org/2000/svg">
<g clip-path="url(#clip0_2018_978)">
<rect x="8" y="8" width="412" height="909" rx="28" fill="#FEF7FF"/>
<path d="M34.0781 43.7012H34.2148C34.8438 43.7012 35.3678 43.6191 35.7871 43.4551C36.2109 43.2865 36.5482 43.054 36.7988 42.7578C37.0495 42.4616 37.2295 42.113 37.3389 41.7119C37.4482 41.3109 37.5029 40.8757 37.5029 40.4062V38.6904C37.5029 38.2848 37.4596 37.9294 37.373 37.624C37.291 37.3141 37.1725 37.0566 37.0176 36.8516C36.8672 36.6419 36.6917 36.4847 36.4912 36.3799C36.2952 36.2751 36.0833 36.2227 35.8555 36.2227C35.6048 36.2227 35.3792 36.2796 35.1787 36.3936C34.9827 36.5029 34.8164 36.6556 34.6797 36.8516C34.5475 37.043 34.445 37.2686 34.3721 37.5283C34.3037 37.7835 34.2695 38.057 34.2695 38.3486C34.2695 38.6221 34.3014 38.8864 34.3652 39.1416C34.4336 39.3923 34.5339 39.6156 34.666 39.8115C34.7982 40.0075 34.9645 40.1624 35.165 40.2764C35.3656 40.3903 35.6003 40.4473 35.8691 40.4473C36.1243 40.4473 36.359 40.3994 36.5732 40.3037C36.7874 40.2035 36.9743 40.069 37.1338 39.9004C37.2933 39.7318 37.4186 39.5426 37.5098 39.333C37.6009 39.1234 37.651 38.9092 37.6602 38.6904L38.2891 38.8818C38.2891 39.2282 38.2161 39.57 38.0703 39.9072C37.929 40.2399 37.7308 40.5452 37.4756 40.8232C37.2249 41.0967 36.931 41.3154 36.5938 41.4795C36.2611 41.6436 35.8988 41.7256 35.5068 41.7256C35.0329 41.7256 34.6136 41.6367 34.249 41.459C33.889 41.2767 33.5882 41.0306 33.3467 40.7207C33.1097 40.4108 32.932 40.0553 32.8135 39.6543C32.695 39.2533 32.6357 38.8317 32.6357 38.3896C32.6357 37.9111 32.7087 37.4622 32.8545 37.043C33.0003 36.6237 33.2122 36.2546 33.4902 35.9355C33.7682 35.612 34.1055 35.3613 34.502 35.1836C34.903 35.0013 35.3564 34.9102 35.8623 34.9102C36.4001 34.9102 36.8717 35.015 37.2773 35.2246C37.6829 35.4342 38.0247 35.7236 38.3027 36.0928C38.5807 36.4619 38.7904 36.8903 38.9316 37.3779C39.0729 37.8656 39.1436 38.3896 39.1436 38.9502V39.5312C39.1436 40.1191 39.0911 40.6865 38.9863 41.2334C38.8815 41.7757 38.7106 42.2793 38.4736 42.7441C38.2412 43.2044 37.9336 43.61 37.5508 43.9609C37.1725 44.3073 36.7077 44.5785 36.1562 44.7744C35.6094 44.9658 34.9668 45.0615 34.2285 45.0615H34.0781V43.7012ZM41.1019 44.1797C41.1019 43.9245 41.1885 43.7103 41.3617 43.5371C41.5349 43.3594 41.7696 43.2705 42.0658 43.2705C42.3666 43.2705 42.6013 43.3594 42.7699 43.5371C42.9431 43.7103 43.0296 43.9245 43.0296 44.1797C43.0296 44.4349 42.9431 44.6491 42.7699 44.8223C42.6013 44.9954 42.3666 45.082 42.0658 45.082C41.7696 45.082 41.5349 44.9954 41.3617 44.8223C41.1885 44.6491 41.1019 44.4349 41.1019 44.1797ZM41.1088 38.3555C41.1088 38.1003 41.1953 37.8861 41.3685 37.7129C41.5417 37.5352 41.7764 37.4463 42.0726 37.4463C42.3734 37.4463 42.6081 37.5352 42.7767 37.7129C42.9499 37.8861 43.0365 38.1003 43.0365 38.3555C43.0365 38.6107 42.9499 38.8249 42.7767 38.998C42.6081 39.1712 42.3734 39.2578 42.0726 39.2578C41.7764 39.2578 41.5417 39.1712 41.3685 38.998C41.1953 38.8249 41.1088 38.6107 41.1088 38.3555ZM46.7517 39.2783H47.7361C48.1189 39.2783 48.4356 39.2122 48.6862 39.0801C48.9415 38.9479 49.1306 38.7656 49.2536 38.5332C49.3767 38.3008 49.4382 38.0342 49.4382 37.7334C49.4382 37.4189 49.3812 37.1501 49.2673 36.9268C49.1579 36.6989 48.9893 36.5234 48.7614 36.4004C48.5381 36.2773 48.2533 36.2158 47.907 36.2158C47.6153 36.2158 47.351 36.2751 47.114 36.3936C46.8816 36.5075 46.697 36.6715 46.5603 36.8857C46.4236 37.0954 46.3552 37.346 46.3552 37.6377H44.7009C44.7009 37.109 44.8399 36.6396 45.1179 36.2295C45.3959 35.8193 45.7741 35.498 46.2527 35.2656C46.7357 35.0286 47.278 34.9102 47.8796 34.9102C48.5222 34.9102 49.0827 35.0173 49.5612 35.2314C50.0443 35.4411 50.4203 35.7555 50.6892 36.1748C50.9581 36.5941 51.0925 37.1136 51.0925 37.7334C51.0925 38.016 51.0264 38.3031 50.8943 38.5947C50.7621 38.8864 50.5661 39.153 50.3064 39.3945C50.0466 39.6315 49.723 39.8252 49.3357 39.9756C48.9483 40.1214 48.4994 40.1943 47.989 40.1943H46.7517V39.2783ZM46.7517 40.5635V39.6611H47.989C48.5723 39.6611 49.0691 39.7295 49.4792 39.8662C49.8939 40.0029 50.2312 40.1921 50.4909 40.4336C50.7507 40.6706 50.9398 40.9417 51.0583 41.2471C51.1814 41.5524 51.2429 41.876 51.2429 42.2178C51.2429 42.6826 51.1586 43.0973 50.99 43.4619C50.8259 43.8219 50.5912 44.1273 50.2859 44.3779C49.9805 44.6286 49.6228 44.8177 49.2126 44.9453C48.807 45.0729 48.365 45.1367 47.8864 45.1367C47.4581 45.1367 47.0479 45.0775 46.656 44.959C46.264 44.8405 45.9131 44.665 45.6032 44.4326C45.2933 44.1956 45.0473 43.9017 44.865 43.5508C44.6872 43.1953 44.5984 42.7852 44.5984 42.3203H46.2458C46.2458 42.6165 46.3142 42.8786 46.4509 43.1064C46.5922 43.3298 46.7881 43.5052 47.0388 43.6328C47.294 43.7604 47.5857 43.8242 47.9138 43.8242C48.2601 43.8242 48.5586 43.7627 48.8093 43.6396C49.0599 43.5166 49.2514 43.3343 49.3835 43.0928C49.5202 42.8512 49.5886 42.5596 49.5886 42.2178C49.5886 41.8304 49.5134 41.516 49.363 41.2744C49.2126 41.0329 48.9984 40.8551 48.7204 40.7412C48.4424 40.6227 48.1143 40.5635 47.7361 40.5635H46.7517ZM59.5382 39.1895V40.8164C59.5382 41.5957 59.4607 42.2611 59.3057 42.8125C59.1554 43.3594 58.9366 43.8037 58.6495 44.1455C58.3624 44.4873 58.0183 44.738 57.6173 44.8975C57.2208 45.057 56.7764 45.1367 56.2843 45.1367C55.8923 45.1367 55.5277 45.0866 55.1905 44.9863C54.8578 44.8861 54.557 44.7288 54.2882 44.5146C54.0193 44.3005 53.7891 44.0247 53.5977 43.6875C53.4109 43.3457 53.2651 42.9378 53.1602 42.4639C53.06 41.9899 53.0098 41.4408 53.0098 40.8164V39.1895C53.0098 38.4056 53.0873 37.7448 53.2423 37.207C53.3972 36.6647 53.6182 36.2249 53.9054 35.8877C54.1925 35.5459 54.5343 35.2975 54.9307 35.1426C55.3318 34.9876 55.7784 34.9102 56.2706 34.9102C56.6671 34.9102 57.0317 34.9603 57.3643 35.0605C57.7016 35.1562 58.0024 35.3089 58.2667 35.5186C58.5356 35.7282 58.7634 36.0016 58.9503 36.3389C59.1417 36.6715 59.2875 37.0749 59.3878 37.5488C59.488 38.0182 59.5382 38.5651 59.5382 39.1895ZM57.8907 41.0488V38.9434C57.8907 38.5469 57.8679 38.1982 57.8223 37.8975C57.7768 37.5921 57.7084 37.3346 57.6173 37.125C57.5307 36.9108 57.4213 36.7376 57.2891 36.6055C57.157 36.4688 57.0066 36.3708 56.838 36.3115C56.6693 36.2477 56.4802 36.2158 56.2706 36.2158C56.0154 36.2158 55.7875 36.266 55.587 36.3662C55.3865 36.4619 55.2179 36.6169 55.0811 36.8311C54.9444 37.0452 54.8396 37.3278 54.7667 37.6787C54.6983 38.0251 54.6641 38.4466 54.6641 38.9434V41.0488C54.6641 41.4499 54.6869 41.8031 54.7325 42.1084C54.7781 42.4137 54.8464 42.6758 54.9376 42.8945C55.0287 43.1087 55.1381 43.2865 55.2657 43.4277C55.3979 43.5645 55.5483 43.6647 55.7169 43.7285C55.8901 43.7923 56.0792 43.8242 56.2843 43.8242C56.544 43.8242 56.7742 43.7741 56.9747 43.6738C57.1752 43.5736 57.3438 43.4141 57.4805 43.1953C57.6173 42.972 57.7198 42.6826 57.7882 42.3271C57.8565 41.9717 57.8907 41.5456 57.8907 41.0488Z" fill="#1D1B20"/>
<path opacity="0.1" d="M358.5 34.4167C355.1 34.4167 352.125 35.9042 350 38.2417L358.5 48.5833L367 38.2417C364.875 35.9042 361.9 34.4167 358.5 34.4167Z" fill="#1D1B20"/>
<path d="M381.583 34.4167L367.417 48.5833H381.583V34.4167Z" fill="#1D1B20"/>
<path opacity="0.3" d="M393.5 34H390.5V35.5H389C388.448 35.5 388 36.0037 388 36.625V47.875C388 48.4963 388.448 49 389 49H395C395.552 49 396 48.4963 396 47.875V36.625C396 36.0037 395.552 35.5 395 35.5H393.5V34Z" fill="#1D1B20"/>
<path d="M388 42C388 42.5833 388 47.3667 388 47.95C388 48.5299 388.448 49 389 49H395C395.552 49 396 48.5299 396 47.95C396 47.3667 396 42.5833 396 42H388Z" fill="#1D1B20"/>
<path fill-rule="evenodd" clip-rule="evenodd" d="M214 26C207.373 26 202 31.3731 202 38C202 44.6269 207.373 50 214 50C220.627 50 226 44.6269 226 38C226 31.3731 220.627 26 214 26Z" fill="#1D1B20"/>
<g clip-path="url(#clip1_2018_978)">
<path d="M126 477C126 465.954 134.954 457 146 457H247C249.209 457 251 458.791 251 461V493C251 495.209 249.209 497 247 497H146C134.954 497 126 488.046 126 477Z" fill="#6750A4"/>
<path d="M178.907 472.047V482H177.191L172.728 474.87V482H171.012V472.047H172.728L177.205 479.19V472.047H178.907ZM184.148 482.137C183.601 482.137 183.107 482.048 182.664 481.87C182.227 481.688 181.853 481.435 181.543 481.111C181.238 480.788 181.003 480.407 180.839 479.97C180.675 479.532 180.593 479.061 180.593 478.555V478.281C180.593 477.702 180.677 477.178 180.846 476.709C181.015 476.24 181.249 475.839 181.55 475.506C181.851 475.169 182.206 474.911 182.617 474.733C183.027 474.556 183.471 474.467 183.95 474.467C184.478 474.467 184.941 474.556 185.337 474.733C185.734 474.911 186.062 475.162 186.322 475.485C186.586 475.804 186.782 476.185 186.91 476.627C187.042 477.069 187.108 477.557 187.108 478.09V478.794H181.393V477.611H185.481V477.481C185.472 477.185 185.413 476.907 185.303 476.647C185.198 476.388 185.037 476.178 184.818 476.019C184.599 475.859 184.307 475.779 183.943 475.779C183.669 475.779 183.426 475.839 183.211 475.957C183.002 476.071 182.826 476.237 182.685 476.456C182.544 476.675 182.434 476.939 182.357 477.249C182.284 477.554 182.247 477.898 182.247 478.281V478.555C182.247 478.878 182.291 479.179 182.377 479.457C182.468 479.73 182.601 479.97 182.774 480.175C182.947 480.38 183.157 480.542 183.403 480.66C183.649 480.774 183.929 480.831 184.244 480.831C184.64 480.831 184.993 480.751 185.303 480.592C185.613 480.432 185.882 480.207 186.11 479.915L186.978 480.756C186.818 480.988 186.611 481.212 186.356 481.426C186.101 481.635 185.788 481.806 185.419 481.938C185.055 482.071 184.631 482.137 184.148 482.137ZM190.503 480.359L192.212 474.604H193.264L192.977 476.326L191.255 482H190.311L190.503 480.359ZM189.498 474.604L190.831 480.387L190.94 482H189.888L187.885 474.604H189.498ZM194.864 480.318L196.156 474.604H197.763L195.766 482H194.714L194.864 480.318ZM193.442 474.604L195.131 480.291L195.343 482H194.399L192.656 476.319L192.369 474.604H193.442ZM210.377 476.914V480.715C210.235 480.902 210.014 481.107 209.713 481.33C209.417 481.549 209.023 481.738 208.531 481.897C208.039 482.057 207.426 482.137 206.692 482.137C206.068 482.137 205.496 482.032 204.976 481.822C204.457 481.608 204.008 481.296 203.629 480.886C203.256 480.476 202.966 479.977 202.761 479.389C202.556 478.796 202.454 478.122 202.454 477.365V476.675C202.454 475.923 202.547 475.253 202.734 474.665C202.925 474.073 203.199 473.571 203.554 473.161C203.91 472.751 204.338 472.441 204.839 472.231C205.345 472.017 205.917 471.91 206.555 471.91C207.371 471.91 208.046 472.047 208.579 472.32C209.116 472.589 209.531 472.963 209.823 473.441C210.115 473.92 210.299 474.467 210.377 475.082H208.695C208.64 474.736 208.533 474.426 208.374 474.152C208.219 473.879 207.995 473.665 207.704 473.51C207.417 473.35 207.043 473.271 206.583 473.271C206.186 473.271 205.837 473.346 205.537 473.496C205.236 473.646 204.985 473.868 204.785 474.159C204.589 474.451 204.441 474.806 204.34 475.226C204.24 475.645 204.19 476.123 204.19 476.661V477.365C204.19 477.912 204.247 478.397 204.361 478.821C204.479 479.245 204.648 479.603 204.867 479.895C205.09 480.186 205.361 480.407 205.68 480.558C205.999 480.703 206.359 480.776 206.76 480.776C207.152 480.776 207.474 480.744 207.724 480.681C207.975 480.612 208.173 480.533 208.319 480.441C208.469 480.346 208.586 480.255 208.668 480.168V478.192H206.596V476.914H210.377ZM216.383 480.517V476.989C216.383 476.725 216.335 476.497 216.239 476.306C216.144 476.114 215.998 475.966 215.802 475.861C215.61 475.757 215.369 475.704 215.077 475.704C214.808 475.704 214.576 475.75 214.38 475.841C214.184 475.932 214.031 476.055 213.922 476.21C213.812 476.365 213.758 476.54 213.758 476.736H212.117C212.117 476.445 212.188 476.162 212.329 475.889C212.47 475.615 212.675 475.371 212.944 475.157C213.213 474.943 213.535 474.774 213.908 474.651C214.282 474.528 214.701 474.467 215.166 474.467C215.722 474.467 216.214 474.56 216.643 474.747C217.076 474.934 217.415 475.216 217.661 475.595C217.912 475.968 218.037 476.438 218.037 477.003V480.291C218.037 480.628 218.06 480.931 218.105 481.2C218.156 481.465 218.226 481.695 218.317 481.891V482H216.629C216.551 481.822 216.49 481.597 216.444 481.323C216.403 481.045 216.383 480.776 216.383 480.517ZM216.622 477.502L216.636 478.521H215.453C215.148 478.521 214.879 478.55 214.646 478.609C214.414 478.664 214.22 478.746 214.065 478.855C213.91 478.965 213.794 479.097 213.717 479.252C213.639 479.407 213.601 479.582 213.601 479.778C213.601 479.974 213.646 480.154 213.737 480.318C213.828 480.478 213.961 480.603 214.134 480.694C214.312 480.785 214.526 480.831 214.776 480.831C215.114 480.831 215.408 480.763 215.658 480.626C215.913 480.485 216.114 480.314 216.26 480.113C216.406 479.908 216.483 479.715 216.492 479.532L217.025 480.264C216.971 480.451 216.877 480.651 216.745 480.865C216.613 481.079 216.44 481.285 216.226 481.48C216.016 481.672 215.763 481.829 215.467 481.952C215.175 482.075 214.838 482.137 214.455 482.137C213.972 482.137 213.541 482.041 213.163 481.85C212.785 481.654 212.489 481.392 212.274 481.063C212.06 480.731 211.953 480.355 211.953 479.936C211.953 479.544 212.026 479.197 212.172 478.896C212.322 478.591 212.541 478.336 212.828 478.131C213.12 477.926 213.475 477.771 213.895 477.666C214.314 477.557 214.792 477.502 215.33 477.502H216.622ZM221.507 476.107V482H219.86V474.604H221.412L221.507 476.107ZM221.241 478.028L220.68 478.021C220.68 477.511 220.744 477.039 220.871 476.606C220.999 476.174 221.186 475.798 221.432 475.479C221.678 475.155 221.983 474.907 222.348 474.733C222.717 474.556 223.143 474.467 223.626 474.467C223.964 474.467 224.271 474.517 224.549 474.617C224.832 474.713 225.076 474.866 225.281 475.075C225.49 475.285 225.65 475.554 225.759 475.882C225.873 476.21 225.93 476.606 225.93 477.071V482H224.283V477.215C224.283 476.855 224.228 476.572 224.119 476.367C224.014 476.162 223.861 476.016 223.661 475.93C223.465 475.839 223.23 475.793 222.956 475.793C222.647 475.793 222.382 475.852 222.163 475.971C221.949 476.089 221.774 476.251 221.637 476.456C221.5 476.661 221.4 476.898 221.336 477.167C221.273 477.436 221.241 477.723 221.241 478.028ZM225.828 477.591L225.055 477.762C225.055 477.315 225.117 476.894 225.24 476.497C225.367 476.096 225.552 475.745 225.793 475.444C226.039 475.139 226.343 474.9 226.703 474.727C227.063 474.553 227.475 474.467 227.94 474.467C228.318 474.467 228.655 474.519 228.952 474.624C229.252 474.724 229.508 474.884 229.717 475.103C229.927 475.321 230.086 475.606 230.196 475.957C230.305 476.303 230.36 476.723 230.36 477.215V482H228.705V477.208C228.705 476.834 228.651 476.545 228.541 476.34C228.437 476.135 228.286 475.993 228.09 475.916C227.894 475.834 227.66 475.793 227.386 475.793C227.131 475.793 226.905 475.841 226.709 475.937C226.518 476.028 226.356 476.158 226.224 476.326C226.092 476.49 225.992 476.679 225.923 476.894C225.859 477.108 225.828 477.34 225.828 477.591ZM235.416 482.137C234.869 482.137 234.374 482.048 233.932 481.87C233.495 481.688 233.121 481.435 232.811 481.111C232.506 480.788 232.271 480.407 232.107 479.97C231.943 479.532 231.861 479.061 231.861 478.555V478.281C231.861 477.702 231.945 477.178 232.114 476.709C232.283 476.24 232.517 475.839 232.818 475.506C233.119 475.169 233.474 474.911 233.885 474.733C234.295 474.556 234.739 474.467 235.218 474.467C235.746 474.467 236.209 474.556 236.605 474.733C237.002 474.911 237.33 475.162 237.59 475.485C237.854 475.804 238.05 476.185 238.178 476.627C238.31 477.069 238.376 477.557 238.376 478.09V478.794H232.661V477.611H236.749V477.481C236.74 477.185 236.68 476.907 236.571 476.647C236.466 476.388 236.304 476.178 236.086 476.019C235.867 475.859 235.575 475.779 235.211 475.779C234.937 475.779 234.693 475.839 234.479 475.957C234.27 476.071 234.094 476.237 233.953 476.456C233.812 476.675 233.702 476.939 233.625 477.249C233.552 477.554 233.515 477.898 233.515 478.281V478.555C233.515 478.878 233.559 479.179 233.645 479.457C233.736 479.73 233.869 479.97 234.042 480.175C234.215 480.38 234.425 480.542 234.671 480.66C234.917 480.774 235.197 480.831 235.512 480.831C235.908 480.831 236.261 480.751 236.571 480.592C236.881 480.432 237.15 480.207 237.378 479.915L238.246 480.756C238.086 480.988 237.879 481.212 237.624 481.426C237.369 481.635 237.056 481.806 236.687 481.938C236.323 482.071 235.899 482.137 235.416 482.137Z" fill="white"/>
<path d="M151.167 481.167H152.833V477.833H156.167V476.167H152.833V472.833H151.167V476.167H147.833V477.833H151.167V481.167ZM152 485.333C150.847 485.333 149.764 485.118 148.75 484.688C147.736 484.243 146.854 483.646 146.104 482.896C145.354 482.146 144.757 481.264 144.313 480.25C143.882 479.236 143.667 478.153 143.667 477C143.667 475.847 143.882 474.764 144.313 473.75C144.757 472.736 145.354 471.854 146.104 471.104C146.854 470.354 147.736 469.764 148.75 469.333C149.764 468.889 150.847 468.667 152 468.667C153.153 468.667 154.236 468.889 155.25 469.333C156.264 469.764 157.146 470.354 157.896 471.104C158.646 471.854 159.236 472.736 159.667 473.75C160.111 474.764 160.333 475.847 160.333 477C160.333 478.153 160.111 479.236 159.667 480.25C159.236 481.264 158.646 482.146 157.896 482.896C157.146 483.646 156.264 484.243 155.25 484.688C154.236 485.118 153.153 485.333 152 485.333ZM152 483.667C153.861 483.667 155.438 483.021 156.729 481.729C158.021 480.438 158.667 478.861 158.667 477C158.667 475.139 158.021 473.563 156.729 472.271C155.438 470.979 153.861 470.333 152 470.333C150.139 470.333 148.563 470.979 147.271 472.271C145.979 473.563 145.333 475.139 145.333 477C145.333 478.861 145.979 480.438 147.271 481.729C148.563 483.021 150.139 483.667 152 483.667Z" fill="white"/>
</g>
<g clip-path="url(#clip2_2018_978)">
<path d="M253 461C253 458.791 254.791 457 257 457H281C292.046 457 301 465.954 301 477C301 488.046 292.046 497 281 497H257C254.791 497 253 495.209 253 493V461Z" fill="#6750A4"/>
<path d="M276 480.117L270.5 474.617L271.783 473.333L276 477.55L280.217 473.333L281.5 474.617L276 480.117Z" fill="white"/>
</g>
<rect x="160" y="903" width="108" height="4" rx="2" fill="#1D1B20"/>
</g>
<rect x="4" y="4" width="420" height="917" rx="32" stroke="#CAC4D0" stroke-width="8"/>
<defs>
<clipPath id="clip0_2018_978">
<rect x="8" y="8" width="412" height="909" rx="28" fill="white"/>
</clipPath>
<clipPath id="clip1_2018_978">
<path d="M126 477C126 465.954 134.954 457 146 457H247C249.209 457 251 458.791 251 461V493C251 495.209 249.209 497 247 497H146C134.954 497 126 488.046 126 477Z" fill="white"/>
</clipPath>
<clipPath id="clip2_2018_978">
<path d="M253 461C253 458.791 254.791 457 257 457H281C292.046 457 301 465.954 301 477C301 488.046 292.046 497 281 497H257C254.791 497 253 495.209 253 493V461Z" fill="white"/>
</clipPath>
</defs>
</svg>
